<svg width="66" height="41" viewBox="0 0 66 41" fill="none" xmlns="http://www.w3.org/2000/svg">
<path d="M5.99955 3.49968C4.49955 4.33302 1.39955 6.49968 0.999552 8.49968C0.499552 10.9997 0.499552 13.9997 2.99955 15.9997C5.49955 17.9997 7.5 18.4997 12 18.4997C15.6 18.4997 43.1667 18.4997 56.5 18.4997C58.3333 18.333 62.4 17.3997 64 14.9997C65.6667 13.1663 67.2 8.29968 60 3.49968C52.8 -1.30032 44 0.833015 40.5 2.49968C39.1667 2.83312 35.9 4.4 33.5 8" stroke="white"/>
<path d="M40.5 2.5002C38 1.16687 30.8998 -1.1004 24.4998 2.4996C18.0998 6.0996 17.1665 7.99946 17.4998 8.4994" stroke="white"/>
<path d="M24.5 2.50044C22.6667 1.00044 16.7 -1.09956 7.5 2.50044L5 4" stroke="white"/>
<path d="M2.49979 16C1.66646 16.3333 0.199793 17.4 0.999793 19C1.79979 20.6 3.99993 21.6667 5 22C6.5 22.3333 10.3 23 13.5 23C16.7 23 20.3333 20.1667 21.5 18.5" stroke="white"/>
<path d="M23 18.5C26.1667 21.6667 34.7 26.1 43.5 18.5" stroke="white"/>
<path d="M44.5 18.5C45.8333 20.6667 50.2 24.2 57 23C65.5 21.5 65.5 16.5 64 15" stroke="white"/>
<path d="M1.49978 21.5C0.99978 22.5 0.79978 24.5 3.99978 24.5C7.19978 24.5 8.66633 23.8333 8.9996 23.5C9.4996 23.5 10.6996 23.9 11.4996 25.5C12.2996 27.1 14.8329 26.8333 15.9996 26.5C16.4996 26 17.6996 25.1 18.4996 25.5C19.4996 26 20.9996 28 22.4996 28C23.9996 28 26.4996 25 27.9996 26.5C29.4996 28 31.4996 29 32.4996 28.5C33.4996 28 35.9996 25 37.4996 25.5C38.9996 26 40.9996 28 42.4996 28C43.9996 28 45.4996 25.5 46.9996 25.5C48.4996 25.5 50.8816 27 51.9996 27C53.4996 27 56.4996 23.5 56.9996 23.5C57.4996 23.5 60.9996 25.5 61.9996 24.5C62.8329 24.5 63.9996 23.3 63.9996 22.5C63.9996 21.7 64.1663 21.5 63.9996 21M0.999602 26.5C0.666269 27.6667 0.499602 30.1 2.4996 30.5C4.9996 31 62.0004 31 63 30.5C63.9996 30 66.0004 29.5 65 25" stroke="white"/>
<path d="M5.5 34C5.66667 35.8333 7.3 39.6 12.5 40C17.7 40.4 43.3333 40.1667 55.5 40C58.1667 39.3333 63 36.5 61 30.5" stroke="white"/>
</svg>
